External Loads File
version=1
nRows=78
nColumns=13
Range=5.000000e-03-10 seconds
endheader
time 	forceRightX 	forceRightY 	forceRightZ 	pointRightX 	pointRightY 	pointRightZ 	forceLeftX 	forceLeftY 	forceLeftZ 	pointLeftX 	pointLeftY 	pointLeftZ 		
5.005000 79.493470 -16.801334 -0.000000 0.169641 0.172379 -0.163456 -33.574202 225.333094 -0.000000 0.397405 0.424888 -0.414770
5.010000 64.918998 -52.824522 -0.000000 0.163037 0.180956 -0.163729 -26.113071 277.278537 -0.000000 0.401214 0.418083 -0.415047
5.015000 52.073557 -83.686076 -0.000000 0.156828 0.190110 -0.164059 -18.494093 334.164913 -0.000000 0.404957 0.410548 -0.415469
5.020000 40.572037 -108.743297 -0.000000 0.151144 0.199601 -0.164484 -11.215966 394.153361 -0.000000 0.408483 0.402324 -0.415517
5.025000 30.122952 -127.254558 -0.000000 0.146199 0.209334 -0.164926 -4.763816 454.855737 -0.000000 0.411585 0.393513 -0.415360
5.030000 20.701448 -138.665481 -0.000000 0.142097 0.218845 -0.165220 0.506894 513.593304 -0.000000 0.414510 0.384148 -0.415082
5.035000 12.633499 -142.962661 -0.000000 0.138568 0.228344 -0.165416 4.363758 567.749447 -0.000000 0.417025 0.374678 -0.414918
5.040000 6.413570 -140.892522 -0.000000 0.135858 0.237817 -0.165882 6.837216 615.110270 -0.000000 0.419137 0.364940 -0.414716
5.045000 2.374151 -133.887776 -0.000000 0.133252 0.247322 -0.166181 8.623445 654.193209 -0.000000 0.420894 0.354887 -0.414505
5.050000 0.875928 -123.753713 -0.000000 0.131556 0.257069 -0.166046 9.299518 684.491015 -0.000000 0.422338 0.344553 -0.414323
5.055000 1.725583 -112.291563 -0.000000 0.130385 0.267197 -0.165803 9.477459 706.398811 -0.000000 0.423559 0.333901 -0.413825
5.060000 4.672176 -100.922553 -0.000000 0.129620 0.277446 -0.165588 8.031791 721.032674 -0.000000 0.424286 0.323133 -0.414122
5.065000 9.031031 -90.488107 -0.000000 0.129706 0.287871 -0.165262 4.806133 729.964104 -0.000000 0.424659 0.312359 -0.414029
5.070000 13.987069 -81.306076 -0.000000 0.130251 0.298350 -0.165080 0.331931 734.998662 -0.000000 0.424600 0.301436 -0.413845
5.075000 18.894599 -73.347657 -0.000000 0.131420 0.308694 -0.165083 -5.216406 737.950471 -0.000000 0.424059 0.290321 -0.413508
5.080000 23.218051 -66.448262 -0.000000 0.133265 0.319227 -0.165224 -10.610000 740.449090 -0.000000 0.422943 0.279156 -0.413424
5.085000 26.836752 -60.373437 -0.000000 0.135639 0.329552 -0.165464 -16.757996 743.768148 -0.000000 0.421147 0.268270 -0.413559
5.090000 29.490758 -55.060291 -0.000000 0.138690 0.339858 -0.165584 -21.690789 748.840492 -0.000000 0.418818 0.257414 -0.413489
5.095000 31.041341 -50.484655 -0.000000 0.142230 0.350138 -0.165923 -24.133123 756.252089 -0.000000 0.415897 0.246355 -0.413668
5.100000 31.505878 -46.532977 -0.000000 0.146467 0.360347 -0.166118 -24.502667 766.179872 -0.000000 0.412275 0.235632 -0.413892
5.105000 30.946625 -43.092194 -0.000000 0.151184 0.370384 -0.166403 -22.898655 778.441733 -0.000000 0.408144 0.225346 -0.413761
5.110000 29.454073 -40.124603 -0.000000 0.156538 0.380114 -0.166749 -18.459296 792.599113 -0.000000 0.403459 0.215338 -0.413590
5.115000 27.140384 -37.650054 -0.000000 0.162668 0.389682 -0.167218 -10.017884 808.047967 -0.000000 0.398162 0.205573 -0.413603
5.120000 24.217566 -35.616449 -0.000000 0.168914 0.398869 -0.167700 0.552854 824.077356 -0.000000 0.392263 0.196333 -0.413547
5.125000 20.673456 -34.055364 -0.000000 0.175984 0.407681 -0.168209 14.745517 840.028237 -0.000000 0.385860 0.187431 -0.413516
5.130000 16.573913 -32.819921 -0.000000 0.183560 0.416192 -0.168568 31.618789 855.266460 -0.000000 0.378943 0.179131 -0.413274
5.135000 11.968659 -31.686481 -0.000000 0.191602 0.424086 -0.168843 50.466379 869.251684 -0.000000 0.371595 0.171282 -0.412958
5.140000 6.856797 -30.427956 -0.000000 0.200550 0.431502 -0.168435 72.380465 881.349673 -0.000000 0.363782 0.163898 -0.412693
5.145000 1.401412 -28.809527 -0.000000 0.209313 0.438512 -0.168901 94.496991 891.186610 -0.000000 0.355556 0.157111 -0.412595
5.150000 -4.321305 -26.704575 -0.000000 0.218485 0.444760 -0.169487 117.075625 898.249705 -0.000000 0.347038 0.150919 -0.412541
5.155000 -10.191219 -24.039225 -0.000000 0.228015 0.450401 -0.169964 139.952887 902.148099 -0.000000 0.338234 0.145305 -0.412497
5.160000 -16.056328 -20.782092 -0.000000 0.237828 0.455505 -0.170630 162.808565 902.623709 -0.000000 0.329172 0.140105 -0.412439
5.165000 -21.724598 -16.948549 -0.000000 0.247631 0.459910 -0.171161 184.012354 899.752604 -0.000000 0.319913 0.135655 -0.412430
5.170000 -27.089972 -12.500535 -0.000000 0.257960 0.463789 -0.171769 204.866621 893.110812 -0.000000 0.310539 0.131901 -0.412442
5.175000 -32.034158 -7.482409 -0.000000 0.268176 0.466922 -0.172263 223.692490 882.872699 -0.000000 0.301019 0.128567 -0.412479
5.180000 -36.508342 -1.899611 -0.000000 0.278708 0.469395 -0.172686 241.290969 868.543607 -0.000000 0.291448 0.126073 -0.412478
5.185000 -40.448938 4.137052 -0.000000 0.289067 0.471137 -0.172910 256.460531 849.957644 -0.000000 0.281868 0.124231 -0.412349
5.190000 -43.767507 10.573652 -0.000000 0.299334 0.472145 -0.172930 269.563741 826.440982 -0.000000 0.272254 0.122994 -0.412321
5.195000 -46.312115 17.395724 -0.000000 0.309611 0.472523 -0.173027 280.781546 797.306870 -0.000000 0.262654 0.122540 -0.412359
5.200000 -47.912850 24.624226 -0.000000 0.319718 0.472253 -0.172996 289.548271 762.090792 -0.000000 0.253078 0.122806 -0.412341
5.205000 -48.408008 32.410762 -0.000000 0.329579 0.471320 -0.172950 295.497657 720.353473 -0.000000 0.243547 0.123889 -0.412331
5.210000 -47.664465 41.071534 -0.000000 0.339238 0.469892 -0.172653 298.152961 671.937870 -0.000000 0.234133 0.125731 -0.412320
5.215000 -45.628556 51.067423 -0.000000 0.348375 0.467896 -0.172350 296.584294 617.208400 -0.000000 0.224845 0.128344 -0.412323
5.220000 -42.315855 63.033204 -0.000000 0.357105 0.465211 -0.171874 290.258506 556.725536 -0.000000 0.215923 0.131572 -0.412226
5.225000 -37.870696 77.718127 -0.000000 0.365080 0.462104 -0.171310 278.595244 491.512149 -0.000000 0.207263 0.135527 -0.411888
5.230000 -32.370422 96.033297 -0.000000 0.372817 0.458433 -0.170896 262.314614 422.341597 -0.000000 0.198784 0.139932 -0.411144
5.235000 -26.367663 118.698924 -0.000000 0.379989 0.454169 -0.170468 240.564119 351.377719 -0.000000 0.191400 0.144961 -0.411098
5.240000 -20.095097 146.362480 -0.000000 0.386495 0.449379 -0.169746 214.996879 279.618880 -0.000000 0.184317 0.150593 -0.411000
5.245000 -13.806749 179.180406 -0.000000 0.392573 0.444043 -0.169142 186.950774 208.386898 -0.000000 0.177374 0.156847 -0.410700
5.250000 -8.249833 216.695969 -0.000000 0.398100 0.438015 -0.168513 157.315286 139.518868 -0.000000 0.171117 0.163534 -0.410735
5.255000 -3.945528 257.945287 -0.000000 0.403270 0.431735 -0.167972 127.615687 74.230793 -0.000000 0.165327 0.170765 -0.410635
5.260000 -1.195777 301.566629 -0.000000 0.408148 0.424864 -0.167556 99.070048 13.455202 -0.000000 0.159856 0.178502 -0.410307
5.265000 0.046498 346.022173 -0.000000 0.412689 0.417305 -0.167283 72.271919 -41.979512 -0.000000 0.154712 0.187230 -0.409910
5.270000 -0.650452 389.797432 -0.000000 0.416954 0.409305 -0.167469 47.389988 -90.971855 -0.000000 0.149884 0.196470 -0.409389
5.275000 -3.300578 431.518143 -0.000000 0.420902 0.400528 -0.167689 24.444663 -132.326338 -0.000000 0.145726 0.205925 -0.409312
5.280000 -8.477650 469.992472 -0.000000 0.424596 0.391193 -0.167940 3.748357 -164.743487 -0.000000 0.142434 0.214909 -0.409393
5.285000 -15.327470 504.298901 -0.000000 0.427708 0.381503 -0.168048 -14.467695 -187.330479 -0.000000 0.139858 0.223981 -0.409601
5.290000 -23.589771 533.897606 -0.000000 0.430317 0.371681 -0.168109 -29.385578 -199.958333 -0.000000 0.137830 0.232878 -0.409903
5.295000 -31.497760 558.807921 -0.000000 0.432302 0.361570 -0.168344 -40.601026 -203.420760 -0.000000 0.136112 0.242120 -0.410085
5.300000 -38.229029 579.522018 -0.000000 0.433923 0.351085 -0.168453 -47.554772 -199.345165 -0.000000 0.134790 0.251679 -0.410186
5.305000 -42.801148 596.903918 -0.000000 0.434900 0.340153 -0.168305 -50.132323 -189.750978 -0.000000 0.133832 0.261820 -0.410389
5.310000 -45.527736 611.877187 -0.000000 0.435565 0.329042 -0.168030 -48.239422 -176.726826 -0.000000 0.133224 0.272315 -0.410364
5.315000 -46.859071 625.332677 -0.000000 0.435434 0.317875 -0.168445 -42.258092 -162.024952 -0.000000 0.133136 0.283067 -0.410398
5.320000 -47.115417 638.123423 -0.000000 0.434691 0.306581 -0.167951 -33.028887 -146.878844 -0.000000 0.133626 0.293770 -0.410379
5.325000 -46.478336 651.061436 -0.000000 0.433621 0.295435 -0.169113 -21.546676 -131.976016 -0.000000 0.134687 0.304564 -0.410336
5.330000 -44.966642 664.807297 -0.000000 0.431803 0.284479 -0.169197 -8.648712 -117.589624 -0.000000 0.136345 0.315311 -0.410286
5.335000 -40.277374 679.890077 -0.000000 0.429234 0.273177 -0.169187 4.678177 -103.828389 -0.000000 0.138682 0.326125 -0.410246
5.340000 -34.055203 696.321135 -0.000000 0.426156 0.262276 -0.169244 18.205453 -90.830314 -0.000000 0.141644 0.336753 -0.410343
5.345000 -24.187523 714.154633 -0.000000 0.422466 0.251594 -0.169107 31.163190 -78.739193 -0.000000 0.145185 0.347746 -0.410543
5.350000 -13.912983 733.096606 -0.000000 0.418257 0.241170 -0.169132 43.536381 -67.501990 -0.000000 0.149321 0.357719 -0.410897
5.355000 -0.114276 752.971261 -0.000000 0.413332 0.231078 -0.169000 54.661864 -57.331108 -0.000000 0.153981 0.367998 -0.411435
5.360000 15.802923 773.368098 -0.000000 0.407956 0.221360 -0.168792 64.349652 -48.226356 -0.000000 0.159261 0.378136 -0.411481
5.365000 34.203589 793.808545 -0.000000 0.402012 0.211510 -0.168515 72.254157 -40.331485 -0.000000 0.165012 0.387852 -0.411367
5.370000 53.856729 813.807282 -0.000000 0.395478 0.202340 -0.168268 78.155840 -33.694445 -0.000000 0.171340 0.397342 -0.410991
5.375000 74.432113 832.877707 -0.000000 0.388518 0.193653 -0.168047 81.821941 -28.395803 -0.000000 0.178114 0.406546 -0.410793
5.380000 96.222911 850.476319 -0.000000 0.380973 0.185279 -0.167794 83.118652 -24.477353 -0.000000 0.185480 0.415279 -0.410569
5.385000 117.346647 866.305910 -0.000000 0.373071 0.177551 -0.167532 82.169500 -21.681388 -0.000000 0.193304 0.423380 -0.410175
5.390000 137.449511 879.948676 -0.000000 0.364764 0.170293 -0.167356 79.225380 -19.850498 -0.000000 0.201600 0.430385 -0.409851
